# xmcd
#
# Track frame offsets: 
#        150
#        9225
#        18225
#        28101
#        36697
#        46474
#        60113
#        69627
#        79423
#        87939
#
# Disc length: 1323 seconds
#
# Revision: 0
# Processed by: cddbd v1.5.2PL0 Copyright (c) Steve Scherf et al.
# Submitted via: ExactAudioCopy v1.0b3
#
DISCID=7905290a
DTITLE=The Buckaroos - Roll Your Own With Buck Owens' Buckaroos
DYEAR=1969
DGENRE=Country
TTITLE0=Nobody But You
TTITLE1=Catfish Capers
TTITLE2=Natural Born Loser
TTITLE3=Sweet-T-Pie
TTITLE4=Lay A Little Light On Me
TTITLE5=The Biggest Storm Of All
TTITLE6=Roll Your Own
TTITLE7=Down At The Corner Bar
TTITLE8=Bossa Nova Buckaroo Style
TTITLE9=If I Had You (By My Side)
EXTD=
EXTT0=
EXTT1=
EXTT2=
EXTT3=
EXTT4=
EXTT5=
EXTT6=
EXTT7=
EXTT8=
EXTT9=
PLAYORDER=
